<svg xmlns="http://www.w3.org/2000/svg" xmlns:xlink="http://www.w3.org/1999/xlink" width="425" zoomAndPan="magnify" viewBox="0 0 318.75 105.749996" height="141" preserveAspectRatio="xMidYMid meet" version="1.0"><defs><g/><clipPath id="d9b5baa9aa"><path d="M 222 11 L 276 11 L 276 71 L 222 71 Z M 222 11 " clip-rule="nonzero"/></clipPath><clipPath id="37a43541a2"><path d="M 210.453125 36.523438 L 271.25 7.5625 L 290.878906 48.769531 L 230.082031 77.730469 Z M 210.453125 36.523438 " clip-rule="nonzero"/></clipPath><clipPath id="6d63714a3f"><path d="M 210.453125 36.523438 L 271.25 7.5625 L 290.878906 48.769531 L 230.082031 77.730469 Z M 210.453125 36.523438 " clip-rule="nonzero"/></clipPath><clipPath id="7001c634c0"><rect x="0" width="37" y="0" height="69"/></clipPath></defs><g clip-path="url(#d9b5baa9aa)"><g clip-path="url(#37a43541a2)"><g clip-path="url(#6d63714a3f)"><path fill="#5e17eb" d="M 269.253906 11.75 C 266.660156 10.832031 263.941406 11.050781 261.640625 12.144531 C 259.335938 13.242188 257.457031 15.21875 256.535156 17.804688 C 255.128906 21.761719 256.378906 26.015625 259.355469 28.625 L 249.304688 56.921875 C 248.40625 59.457031 246.574219 61.488281 244.144531 62.644531 C 241.71875 63.800781 238.988281 63.941406 236.449219 63.046875 C 233.917969 62.148438 231.886719 60.320312 230.730469 57.894531 C 229.574219 55.464844 229.433594 52.734375 230.332031 50.199219 L 232.78125 51.070312 L 228.394531 33.667969 L 223.398438 47.746094 C 220.171875 56.8125 224.917969 66.773438 233.988281 69.980469 C 238.523438 71.589844 243.285156 71.203125 247.308594 69.285156 C 251.339844 67.367188 254.632812 63.914062 256.242188 59.378906 L 266.289062 31.082031 C 267.65625 31.03125 268.984375 30.699219 270.203125 30.121094 C 272.503906 29.023438 274.386719 27.046875 275.308594 24.457031 C 277.144531 19.28125 274.433594 13.585938 269.253906 11.75 Z M 270.617188 22.792969 C 270.171875 24.050781 269.261719 25.050781 268.0625 25.625 C 267.4375 25.921875 266.78125 26.085938 266.101562 26.109375 L 264.121094 26.183594 L 262.632812 24.878906 C 261.890625 24.234375 261.363281 23.386719 261.109375 22.425781 C 260.84375 21.449219 260.882812 20.433594 261.222656 19.476562 C 261.667969 18.222656 262.578125 17.214844 263.78125 16.640625 C 264.984375 16.070312 266.335938 16 267.59375 16.445312 C 268.84375 16.882812 269.847656 17.792969 270.421875 18.988281 C 270.992188 20.1875 271.058594 21.539062 270.617188 22.792969 Z M 270.617188 22.792969 " fill-opacity="1" fill-rule="nonzero"/></g></g></g><g fill="#ffffff" fill-opacity="1"><g transform="translate(21.641978, 70.088503)"><g><path d="M 16.65625 0.765625 C 24.816406 0.765625 30.570312 -3.617188 30.570312 -10.792969 C 30.570312 -18.628906 24.105469 -20.652344 18.023438 -22.570312 C 12.21875 -24.324219 10.738281 -25.585938 10.738281 -27.941406 C 10.738281 -30.132812 12.601562 -31.777344 15.777344 -31.777344 C 19.667969 -31.777344 21.75 -29.75 23.121094 -26.84375 L 29.472656 -30.515625 C 26.898438 -35.882812 22.078125 -39.117188 15.777344 -39.117188 C 9.203125 -39.117188 3.175781 -34.953125 3.175781 -27.722656 C 3.175781 -20.433594 8.875 -17.96875 14.738281 -16.269531 C 20.433594 -14.628906 23.011719 -13.53125 23.011719 -10.683594 C 23.011719 -8.546875 21.421875 -6.628906 16.875 -6.628906 C 12.109375 -6.628906 9.421875 -8.929688 8.054688 -12.492188 L 1.589844 -8.710938 C 3.671875 -3.011719 8.820312 0.765625 16.65625 0.765625 Z M 16.65625 0.765625 "/></g></g></g><g fill="#ffffff" fill-opacity="1"><g transform="translate(53.581395, 70.088503)"><g><path d="M 18.902344 -20.597656 L 18.902344 -27.394531 L 12.710938 -27.394531 L 12.710938 -35.0625 L 5.644531 -32.925781 L 5.644531 -27.394531 L 0.875 -27.394531 L 0.875 -20.597656 L 5.644531 -20.597656 L 5.644531 -9.203125 C 5.644531 -1.808594 8.984375 1.097656 18.902344 0 L 18.902344 -6.410156 C 14.847656 -6.191406 12.710938 -6.246094 12.710938 -9.203125 L 12.710938 -20.597656 Z M 18.902344 -20.597656 "/></g></g></g><g fill="#ffffff" fill-opacity="1"><g transform="translate(74.67346, 70.088503)"><g><path d="M 10.300781 -22.679688 L 10.300781 -27.394531 L 3.230469 -27.394531 L 3.230469 0 L 10.300781 0 L 10.300781 -13.09375 C 10.300781 -18.847656 14.957031 -20.488281 18.628906 -20.050781 L 18.628906 -27.941406 C 15.175781 -27.941406 11.722656 -26.40625 10.300781 -22.679688 Z M 10.300781 -22.679688 "/></g></g></g><g fill="#ffffff" fill-opacity="1"><g transform="translate(94.176778, 70.088503)"><g><path d="M 9.203125 -10.792969 L 29.859375 -10.792969 C 30.023438 -11.722656 30.132812 -12.65625 30.132812 -13.695312 C 30.132812 -21.75 24.378906 -28.160156 16.269531 -28.160156 C 7.671875 -28.160156 1.808594 -21.859375 1.808594 -13.695312 C 1.808594 -5.535156 7.613281 0.765625 16.820312 0.765625 C 22.078125 0.765625 26.1875 -1.371094 28.761719 -5.09375 L 23.066406 -8.382812 C 21.859375 -6.792969 19.667969 -5.644531 16.929688 -5.644531 C 13.203125 -5.644531 10.191406 -7.175781 9.203125 -10.792969 Z M 9.09375 -16.269531 C 9.917969 -19.777344 12.492188 -21.804688 16.269531 -21.804688 C 19.230469 -21.804688 22.1875 -20.214844 23.066406 -16.269531 Z M 9.09375 -16.269531 "/></g></g></g><g fill="#ffffff" fill-opacity="1"><g transform="translate(126.006626, 70.088503)"><g><path d="M 24.050781 -27.394531 L 24.050781 -24.160156 C 22.078125 -26.625 19.121094 -28.160156 15.121094 -28.160156 C 7.835938 -28.160156 1.808594 -21.859375 1.808594 -13.695312 C 1.808594 -5.535156 7.835938 0.765625 15.121094 0.765625 C 19.121094 0.765625 22.078125 -0.765625 24.050781 -3.230469 L 24.050781 0 L 31.117188 0 L 31.117188 -27.394531 Z M 16.4375 -5.972656 C 12.109375 -5.972656 8.875 -9.09375 8.875 -13.695312 C 8.875 -18.296875 12.109375 -21.421875 16.4375 -21.421875 C 20.820312 -21.421875 24.050781 -18.296875 24.050781 -13.695312 C 24.050781 -9.09375 20.820312 -5.972656 16.4375 -5.972656 Z M 16.4375 -5.972656 "/></g></g></g><g fill="#ffffff" fill-opacity="1"><g transform="translate(160.301779, 70.088503)"><g><path d="M 33.527344 -28.160156 C 29.804688 -28.160156 27.0625 -26.679688 25.367188 -24.214844 C 23.832031 -26.734375 21.3125 -28.160156 17.914062 -28.160156 C 14.410156 -28.160156 11.832031 -26.789062 10.300781 -24.488281 L 10.300781 -27.394531 L 3.230469 -27.394531 L 3.230469 0 L 10.300781 0 L 10.300781 -15.394531 C 10.300781 -19.503906 12.4375 -21.585938 15.449219 -21.585938 C 18.40625 -21.585938 20.050781 -19.613281 20.050781 -16.378906 L 20.050781 0 L 27.117188 0 L 27.117188 -15.394531 C 27.117188 -19.503906 29.089844 -21.585938 32.214844 -21.585938 C 35.171875 -21.585938 36.816406 -19.613281 36.816406 -16.378906 L 36.816406 0 L 43.882812 0 L 43.882812 -16.875 C 43.882812 -23.722656 39.773438 -28.160156 33.527344 -28.160156 Z M 33.527344 -28.160156 "/></g></g></g><g fill="#5e17eb" fill-opacity="1"><g transform="translate(206.981156, 70.088503)"><g><path d="M 6.738281 -30.679688 C 9.148438 -30.679688 11.121094 -32.652344 11.121094 -35.007812 C 11.121094 -37.363281 9.148438 -39.390625 6.738281 -39.390625 C 4.382812 -39.390625 2.410156 -37.363281 2.410156 -35.007812 C 2.410156 -32.652344 4.382812 -30.679688 6.738281 -30.679688 Z M 3.230469 0 L 10.300781 0 L 10.300781 -27.394531 L 3.230469 -27.394531 Z M 3.230469 0 "/></g></g></g><g transform="matrix(1, 0, 0, 1, 261, 17)"><g clip-path="url(#7001c634c0)"><g fill="#5e17eb" fill-opacity="1"><g transform="translate(1.926251, 53.676661)"><g><path d="M 24.046875 -27.386719 L 24.046875 -24.15625 C 22.074219 -26.621094 19.117188 -28.152344 15.117188 -28.152344 C 7.832031 -28.152344 1.808594 -21.855469 1.808594 -13.691406 C 1.808594 -5.53125 7.832031 0.765625 15.117188 0.765625 C 19.117188 0.765625 22.074219 -0.765625 24.046875 -3.230469 L 24.046875 0 L 31.109375 0 L 31.109375 -27.386719 Z M 16.433594 -5.96875 C 12.105469 -5.96875 8.875 -9.09375 8.875 -13.691406 C 8.875 -18.292969 12.105469 -21.417969 16.433594 -21.417969 C 20.8125 -21.417969 24.046875 -18.292969 24.046875 -13.691406 C 24.046875 -9.09375 20.8125 -5.96875 16.433594 -5.96875 Z M 16.433594 -5.96875 "/></g></g></g></g></g></svg>